<svg xmlns="http://www.w3.org/2000/svg" viewBox="0 0 1600 400" preserveAspectRatio="xMidYMid slice">
  <defs>
    <linearGradient id="hubbg" x1="0" y1="0" x2="1" y2="1"><stop offset="0%" stop-color="#05070a"/><stop offset="55%" stop-color="#0a0f14"/><stop offset="100%" stop-color="#05070a"/></linearGradient>
    <radialGradient id="hubg1" cx="50%" cy="50%" r="50%"><stop offset="0%" stop-color="#02a34a" stop-opacity="0.5"/><stop offset="100%" stop-color="#02a34a" stop-opacity="0"/></radialGradient><radialGradient id="hubg2" cx="50%" cy="50%" r="50%"><stop offset="0%" stop-color="#004aad" stop-opacity="0.55"/><stop offset="100%" stop-color="#004aad" stop-opacity="0"/></radialGradient><radialGradient id="hubg3" cx="50%" cy="50%" r="50%"><stop offset="0%" stop-color="#02a34a" stop-opacity="0.25"/><stop offset="100%" stop-color="#02a34a" stop-opacity="0"/></radialGradient>
    <pattern id="hubh" width="34" height="34" patternTransform="rotate(135)" patternUnits="userSpaceOnUse"><line x1="0" y1="0" x2="0" y2="34" stroke="#fff" stroke-opacity="0.04" stroke-width="1"/></pattern>
  </defs>
  <rect width="1600" height="400" fill="url(#hubbg)"/>
  <rect width="1600" height="400" fill="url(#hubh)"/>
  <circle cx="140" cy="200" r="260" fill="url(#hubg1)"/>
  <circle cx="1460" cy="200" r="280" fill="url(#hubg2)"/>
  <circle cx="800" cy="90" r="220" fill="url(#hubg3)"/>
<path d="M-20 215 C 180 150, 330 270, 520 210 S 860 140, 1040 215 S 1400 270, 1620 190" fill="none" stroke="#5b9bef" stroke-opacity="0.28" stroke-width="2.5" stroke-linecap="round"/>
<circle cx="110" cy="205" r="52" fill="#02a34a" fill-opacity="0.07" stroke="#02a34a" stroke-opacity="0.25"/>
<g transform="translate(80,175) scale(2.5)" fill="none" stroke="#02a34a" stroke-width="2.4" vector-effect="non-scaling-stroke" stroke-linecap="round" stroke-linejoin="round"><rect vector-effect="non-scaling-stroke" x="3" y="3" width="18" height="18" rx="2"/><circle vector-effect="non-scaling-stroke" cx="8.5" cy="8.5" r="1.5"/><path vector-effect="non-scaling-stroke" d="M21 15l-5-5L5 21"/></g>
<circle cx="282" cy="261.5913642961523" r="52" fill="#5b9bef" fill-opacity="0.07" stroke="#5b9bef" stroke-opacity="0.25"/>
<g transform="translate(252,231.59136429615228) scale(2.5)" fill="none" stroke="#5b9bef" stroke-width="2.4" vector-effect="non-scaling-stroke" stroke-linecap="round" stroke-linejoin="round"><path vector-effect="non-scaling-stroke" d="M4 16a8 8 0 1 1 16 0"/><path vector-effect="non-scaling-stroke" d="M12 16l4-5"/><circle vector-effect="non-scaling-stroke" cx="12" cy="16" r="1"/></g>
<circle cx="454" cy="251.23372315495666" r="52" fill="#02a34a" fill-opacity="0.07" stroke="#02a34a" stroke-opacity="0.25"/>
<g transform="translate(424,221.23372315495666) scale(2.5)" fill="none" stroke="#02a34a" stroke-width="2.4" vector-effect="non-scaling-stroke" stroke-linecap="round" stroke-linejoin="round"><rect vector-effect="non-scaling-stroke" x="2" y="3" width="20" height="14" rx="2"/><path vector-effect="non-scaling-stroke" d="M8 21h8M12 17v4"/></g>
<circle cx="626" cy="186.1804262120774" r="52" fill="#5b9bef" fill-opacity="0.07" stroke="#5b9bef" stroke-opacity="0.25"/>
<g transform="translate(596,156.1804262120774) scale(2.5)" fill="none" stroke="#5b9bef" stroke-width="2.4" vector-effect="non-scaling-stroke" stroke-linecap="round" stroke-linejoin="round"><path vector-effect="non-scaling-stroke" d="M9 18V5l12-2v13"/><circle vector-effect="non-scaling-stroke" cx="6" cy="18" r="3"/><circle vector-effect="non-scaling-stroke" cx="18" cy="16" r="3"/></g>
<circle cx="798" cy="143.3911577747252" r="52" fill="#02a34a" fill-opacity="0.07" stroke="#02a34a" stroke-opacity="0.25"/>
<g transform="translate(768,113.3911577747252) scale(2.5)" fill="none" stroke="#02a34a" stroke-width="2.4" vector-effect="non-scaling-stroke" stroke-linecap="round" stroke-linejoin="round"><rect vector-effect="non-scaling-stroke" x="4" y="11" width="16" height="10" rx="2"/><path vector-effect="non-scaling-stroke" d="M8 11V7a4 4 0 0 1 8 0v4"/></g>
<circle cx="970" cy="173.486697195046" r="52" fill="#5b9bef" fill-opacity="0.07" stroke="#5b9bef" stroke-opacity="0.25"/>
<g transform="translate(940,143.486697195046) scale(2.5)" fill="none" stroke="#5b9bef" stroke-width="2.4" vector-effect="non-scaling-stroke" stroke-linecap="round" stroke-linejoin="round"><rect vector-effect="non-scaling-stroke" x="3" y="3" width="7" height="7" rx="1"/><rect vector-effect="non-scaling-stroke" x="14" y="3" width="7" height="7" rx="1"/><rect vector-effect="non-scaling-stroke" x="3" y="14" width="7" height="7" rx="1"/><path vector-effect="non-scaling-stroke" d="M14 14h3v3h-3zM20 14v3M14 20h3M20 20h1"/></g>
<circle cx="1142" cy="240.86326539206837" r="52" fill="#02a34a" fill-opacity="0.07" stroke="#02a34a" stroke-opacity="0.25"/>
<g transform="translate(1112,210.86326539206837) scale(2.5)" fill="none" stroke="#02a34a" stroke-width="2.4" vector-effect="non-scaling-stroke" stroke-linecap="round" stroke-linejoin="round"><path vector-effect="non-scaling-stroke" d="M4 7V5h16v2M9 19h6M12 5v14"/></g>
<circle cx="1314" cy="265.81268980846477" r="52" fill="#5b9bef" fill-opacity="0.07" stroke="#5b9bef" stroke-opacity="0.25"/>
<g transform="translate(1284,235.81268980846477) scale(2.5)" fill="none" stroke="#5b9bef" stroke-width="2.4" vector-effect="non-scaling-stroke" stroke-linecap="round" stroke-linejoin="round"><path vector-effect="non-scaling-stroke" d="M12 3s6 6.2 6 10.5a6 6 0 0 1-12 0C6 9.2 12 3 12 3z"/></g>
<circle cx="1486" cy="218.81917467421536" r="52" fill="#02a34a" fill-opacity="0.07" stroke="#02a34a" stroke-opacity="0.25"/>
<g transform="translate(1456,188.81917467421536) scale(2.5)" fill="none" stroke="#02a34a" stroke-width="2.4" vector-effect="non-scaling-stroke" stroke-linecap="round" stroke-linejoin="round"><path vector-effect="non-scaling-stroke" d="M4 8h13M13 4l4 4-4 4M20 16H7M11 12l-4 4 4 4"/></g>
<g transform="translate(759.2,47.2) scale(3.4)" fill="none" stroke="#ffffff" stroke-opacity="0.35" stroke-width="2.4" vector-effect="non-scaling-stroke" stroke-linecap="round" stroke-linejoin="round"><path vector-effect="non-scaling-stroke" d="M14.7 6.3a1 1 0 0 0 0 1.4l1.6 1.6a1 1 0 0 0 1.4 0l3.77-3.77a6 6 0 0 1-7.94 7.94l-6.91 6.91a2.12 2.12 0 0 1-3-3l6.91-6.91a6 6 0 0 1 7.94-7.94l-3.76 3.76z"/></g>
</svg>
